<mxfile host="app.diagrams.net" modified="2021-05-19T14:43:06.324Z" agent="5.0 (X11)" etag="RefVc5Hm42EQ59LcgZbS" version="14.6.13" type="github">
  <diagram id="2JfDIKKxDx5WNJtE1lfH" name="Page-1">
    <mxGraphModel dx="1355" dy="804" grid="1" gridSize="10" guides="1" tooltips="1" connect="1" arrows="1" fold="1" page="1" pageScale="1" pageWidth="827" pageHeight="1169" math="0" shadow="0">
      <root>
        <mxCell id="0" />
        <mxCell id="1" parent="0" />
        <mxCell id="5_yObBAS-mK4ojPk4jkR-1" value="Test Events " style="text;html=1;align=center;verticalAlign=middle;resizable=0;points=[];autosize=1;fontSize=18;" parent="1" vertex="1">
          <mxGeometry x="136.57" y="389" width="110" height="30" as="geometry" />
        </mxCell>
        <mxCell id="5_yObBAS-mK4ojPk4jkR-3" value="" style="endArrow=open;startArrow=circle;endFill=0;startFill=1;endSize=8;html=1;strokeWidth=4;fontSize=18;" parent="1" edge="1">
          <mxGeometry width="160" relative="1" as="geometry">
            <mxPoint x="261.57" y="514.1700000000001" as="sourcePoint" />
            <mxPoint x="381.57" y="514" as="targetPoint" />
          </mxGeometry>
        </mxCell>
        <mxCell id="5_yObBAS-mK4ojPk4jkR-5" value="" style="endArrow=open;startArrow=circle;endFill=0;startFill=1;endSize=8;html=1;strokeWidth=4;fontSize=18;" parent="1" edge="1">
          <mxGeometry width="160" relative="1" as="geometry">
            <mxPoint x="764.3700000000001" y="514.3400000000001" as="sourcePoint" />
            <mxPoint x="884.3700000000001" y="514.1700000000001" as="targetPoint" />
          </mxGeometry>
        </mxCell>
        <mxCell id="5_yObBAS-mK4ojPk4jkR-6" value="" style="endArrow=open;startArrow=circle;endFill=0;startFill=1;endSize=8;html=1;strokeWidth=4;fontSize=18;dashed=1;" parent="1" edge="1">
          <mxGeometry width="160" relative="1" as="geometry">
            <mxPoint x="890.3700000000001" y="514.3400000000001" as="sourcePoint" />
            <mxPoint x="1010.3700000000001" y="514.1700000000001" as="targetPoint" />
          </mxGeometry>
        </mxCell>
        <mxCell id="5_yObBAS-mK4ojPk4jkR-7" value="" style="endArrow=open;startArrow=circle;endFill=0;startFill=1;endSize=8;html=1;strokeWidth=4;fontSize=18;" parent="1" edge="1">
          <mxGeometry width="160" relative="1" as="geometry">
            <mxPoint x="1017.8700000000001" y="514.3400000000001" as="sourcePoint" />
            <mxPoint x="1137.8700000000001" y="514.1700000000001" as="targetPoint" />
          </mxGeometry>
        </mxCell>
        <mxCell id="5_yObBAS-mK4ojPk4jkR-8" value="" style="endArrow=none;startArrow=circle;endFill=0;startFill=1;endSize=8;html=1;strokeWidth=4;fontSize=18;" parent="1" edge="1">
          <mxGeometry width="160" relative="1" as="geometry">
            <mxPoint x="1140.3700000000001" y="514.4200000000001" as="sourcePoint" />
            <mxPoint x="1160.3700000000001" y="514.0799999999999" as="targetPoint" />
          </mxGeometry>
        </mxCell>
        <mxCell id="5_yObBAS-mK4ojPk4jkR-17" value="v.forceQuit(p)" style="text;html=1;align=center;verticalAlign=middle;resizable=0;points=[];autosize=1;fontSize=18;" parent="1" vertex="1">
          <mxGeometry x="1025.3700000000001" y="380" width="120" height="30" as="geometry" />
        </mxCell>
        <mxCell id="5_yObBAS-mK4ojPk4jkR-18" value="" style="endArrow=open;startArrow=circle;endFill=0;startFill=1;endSize=8;html=1;strokeWidth=4;fontSize=18;dashed=1;" parent="1" edge="1">
          <mxGeometry width="160" relative="1" as="geometry">
            <mxPoint x="385.57" y="514.3400000000001" as="sourcePoint" />
            <mxPoint x="505.57" y="514.1700000000001" as="targetPoint" />
          </mxGeometry>
        </mxCell>
        <mxCell id="5_yObBAS-mK4ojPk4jkR-23" value="4" style="ellipse;fillColor=#ffffff;strokeColor=#000000;fontSize=18;" parent="1" vertex="1">
          <mxGeometry x="664.6200000000001" y="340" width="30" height="30" as="geometry" />
        </mxCell>
        <mxCell id="5_yObBAS-mK4ojPk4jkR-24" value="3" style="ellipse;fillColor=#ffffff;strokeColor=#000000;fontSize=18;" parent="1" vertex="1">
          <mxGeometry x="541" y="340" width="30" height="30" as="geometry" />
        </mxCell>
        <mxCell id="5_yObBAS-mK4ojPk4jkR-25" value="2" style="ellipse;fillColor=#ffffff;strokeColor=#000000;fontSize=18;" parent="1" vertex="1">
          <mxGeometry x="436.57" y="340" width="30" height="30" as="geometry" />
        </mxCell>
        <mxCell id="5_yObBAS-mK4ojPk4jkR-26" value="1" style="ellipse;fillColor=#ffffff;strokeColor=#000000;fontSize=18;" parent="1" vertex="1">
          <mxGeometry x="321.57" y="340" width="30" height="30" as="geometry" />
        </mxCell>
        <mxCell id="5_yObBAS-mK4ojPk4jkR-27" value="" style="endArrow=classic;html=1;strokeWidth=4;fontSize=18;" parent="1" edge="1">
          <mxGeometry width="50" height="50" relative="1" as="geometry">
            <mxPoint x="332.32" y="415" as="sourcePoint" />
            <mxPoint x="282.32" y="495" as="targetPoint" />
            <Array as="points">
              <mxPoint x="332.32" y="415" />
              <mxPoint x="292.32" y="455" />
              <mxPoint x="322.32" y="455" />
            </Array>
          </mxGeometry>
        </mxCell>
        <mxCell id="5_yObBAS-mK4ojPk4jkR-28" value="v.enter(r)" style="text;html=1;align=center;verticalAlign=middle;resizable=0;points=[];autosize=1;fontSize=18;" parent="1" vertex="1">
          <mxGeometry x="287.32" y="380" width="90" height="30" as="geometry" />
        </mxCell>
        <mxCell id="5_yObBAS-mK4ojPk4jkR-29" value="&lt;font style=&quot;font-size: 16px&quot; color=&quot;#0000FF&quot;&gt;acceptJoin&lt;/font&gt;" style="text;html=1;align=center;verticalAlign=middle;resizable=0;points=[];autosize=1;fontSize=18;" parent="1" vertex="1">
          <mxGeometry x="296.57" y="475" width="90" height="30" as="geometry" />
        </mxCell>
        <mxCell id="5_yObBAS-mK4ojPk4jkR-30" value="&lt;font style=&quot;font-size: 16px&quot; color=&quot;#0000FF&quot;&gt;acceptQuit&lt;/font&gt;" style="text;html=1;align=center;verticalAlign=middle;resizable=0;points=[];autosize=1;fontSize=18;" parent="1" vertex="1">
          <mxGeometry x="1045.3700000000001" y="475" width="90" height="30" as="geometry" />
        </mxCell>
        <mxCell id="5_yObBAS-mK4ojPk4jkR-32" value="" style="endArrow=classic;html=1;strokeWidth=4;fontSize=18;" parent="1" edge="1">
          <mxGeometry width="50" height="50" relative="1" as="geometry">
            <mxPoint x="1073.6200000000001" y="415" as="sourcePoint" />
            <mxPoint x="1023.6200000000001" y="495" as="targetPoint" />
            <Array as="points">
              <mxPoint x="1073.6200000000001" y="415" />
              <mxPoint x="1033.6200000000001" y="455" />
              <mxPoint x="1063.6200000000001" y="455" />
            </Array>
          </mxGeometry>
        </mxCell>
        <mxCell id="5_yObBAS-mK4ojPk4jkR-34" value="5" style="ellipse;fillColor=#ffffff;strokeColor=#000000;fontSize=18;" parent="1" vertex="1">
          <mxGeometry x="781.3700000000001" y="340" width="30" height="30" as="geometry" />
        </mxCell>
        <mxCell id="5_yObBAS-mK4ojPk4jkR-35" value="6" style="ellipse;fillColor=#ffffff;strokeColor=#000000;fontSize=18;" parent="1" vertex="1">
          <mxGeometry x="900.0000000000001" y="340" width="30" height="30" as="geometry" />
        </mxCell>
        <mxCell id="5_yObBAS-mK4ojPk4jkR-36" value="&lt;font style=&quot;font-size: 18px&quot;&gt;Steps&lt;/font&gt;" style="text;html=1;align=center;verticalAlign=middle;resizable=0;points=[];autosize=1;strokeColor=none;" parent="1" vertex="1">
          <mxGeometry x="161.57" y="345" width="60" height="20" as="geometry" />
        </mxCell>
        <mxCell id="5_yObBAS-mK4ojPk4jkR-37" value="&lt;font style=&quot;font-size: 16px&quot;&gt;Reconfiguration Path&lt;/font&gt;" style="text;html=1;align=center;verticalAlign=middle;resizable=0;points=[];autosize=1;strokeColor=none;" parent="1" vertex="1">
          <mxGeometry x="96.57" y="505" width="160" height="20" as="geometry" />
        </mxCell>
        <mxCell id="5_yObBAS-mK4ojPk4jkR-44" value="&lt;font style=&quot;font-size: 16px&quot; color=&quot;#006600&quot;&gt;revokeVehicle&lt;/font&gt;" style="text;html=1;align=center;verticalAlign=middle;resizable=0;points=[];autosize=1;strokeColor=none;" parent="1" vertex="1">
          <mxGeometry x="780.3700000000001" y="485" width="110" height="20" as="geometry" />
        </mxCell>
        <mxCell id="5_yObBAS-mK4ojPk4jkR-45" value="&lt;font color=&quot;#0000FF&quot;&gt;battery=40&lt;/font&gt;" style="text;html=1;align=center;verticalAlign=middle;resizable=0;points=[];autosize=1;strokeColor=none;" parent="1" vertex="1">
          <mxGeometry x="240" y="540" width="70" height="20" as="geometry" />
        </mxCell>
        <mxCell id="5_yObBAS-mK4ojPk4jkR-46" value="&lt;font color=&quot;#0000FF&quot;&gt;battery=30&lt;/font&gt;" style="text;html=1;align=center;verticalAlign=middle;resizable=0;points=[];autosize=1;strokeColor=none;" parent="1" vertex="1">
          <mxGeometry x="740" y="540" width="70" height="20" as="geometry" />
        </mxCell>
        <mxCell id="Ni-IUSlxYS87KvHIqO-1-1" value="&lt;font color=&quot;#FF0000&quot;&gt;isLeader : false&lt;/font&gt;" style="text;html=1;align=center;verticalAlign=middle;resizable=0;points=[];autosize=1;strokeColor=none;" vertex="1" parent="1">
          <mxGeometry x="351.57" y="540" width="100" height="20" as="geometry" />
        </mxCell>
        <mxCell id="Ni-IUSlxYS87KvHIqO-1-2" value="" style="shape=image;verticalLabelPosition=bottom;labelBackgroundColor=#ffffff;verticalAlign=top;aspect=fixed;imageAspect=0;image=data:image/png,iVBORw0KGgoAAAANSUhEUgAABQEAAACwCAMAAACIClgpAAADAFBMVEUAAAAAADMAAGYAAJkAAMwAAP8AMwAAMzMAM2YAM5kAM8wAM/8AZgAAZjMAZmYAZpkAZswAZv8AmQAAmTMAmWYAmZkAmcwAmf8AzAAAzDMAzGYAzJkAzMwAzP8A/wAA/zMA/2YA/5kA/8wA//8zAAAzADMzAGYzAJkzAMwzAP8zMwAzMzMzM2YzM5kzM8wzM/8zZgAzZjMzZmYzZpkzZswzZv8zmQAzmTMzmWYzmZkzmcwzmf8zzAAzzDMzzGYzzJkzzMwzzP8z/wAz/zMz/2Yz/5kz/8wz//9mAABmADNmAGZmAJlmAMxmAP9mMwBmMzNmM2ZmM5lmM8xmM/9mZgBmZjNmZmZmZplmZsxmZv9mmQBmmTNmmWZmmZlmmcxmmf9mzABmzDNmzGZmzJlmzMxmzP9m/wBm/zNm/2Zm/5lm/8xm//+ZAACZADOZAGaZAJmZAMyZAP+ZMwCZMzOZM2aZM5mZM8yZM/+ZZgCZZjOZZmaZZpmZZsyZZv+ZmQCZmTOZmWaZmZmZmcyZmf+ZzACZzDOZzGaZzJmZzMyZzP+Z/wCZ/zOZ/2aZ/5mZ/8yZ///MAADMADPMAGbMAJnMAMzMAP/MMwDMMzPMM2bMM5nMM8zMM//MZgDMZjPMZmbMZpnMZszMZv/MmQDMmTPMmWbMmZnMmczMmf/MzADMzDPMzGbMzJnMzMzMzP/M/wDM/zPM/2bM/5nM/8zM////AAD/ADP/AGb/AJn/AMz/AP//MwD/MzP/M2b/M5n/M8z/M///ZgD/ZjP/Zmb/Zpn/Zsz/Zv//mQD/mTP/mWb/mZn/mcz/mf//zAD/zDP/zGb/zJn/zMz/zP///wD//zP//2b//5n//8z///8AAAAcHBzX1//z8/MKCgrT09NxcXGRkZEjI/9DQ//n5/+FhYU3Nze9vb0fH/8HB//T0/9TU/+goP9eXl7Ly8vLy/8GBv/d3f+fn//U1NQaGhpbW1tOTk7m5ube3t7b29va2trm5v/6+v/j4//r6//09P/a2v/Z2f+KOBmMAAAA2XRSTlP///////////////////////////////////////////////////////////////////////////////////////////////////////////////////////////////////////////////////////////////////////////////////////////////////////////////////////////////////////////////////////////////////////////////////////////////8A9EGGvAAAAAlwSFlzAAAOxAAADsQBlSsOGwAAIABJREFUeJztnT1u4zwQht2kzF5ERYBUPokAA5vqO4ngIjmM3GTTuUvnzp2u81kUf2aGMyQly5YTzQss1hFFajQkH5HijzadSqVSrVWbpQ1QqVSqxaQEVKlU65USUKVSrVdKQJVKtV4pAVUq1XqlBFSpVOuVElClUq1XSkCVSrVeKQFVKtV6pQRUqVTrlRJQpVKtV0pAlUq1XikBVSrVeqUEVKlU69VvJ2DbLm2B6gfpsN/vdrv9fmk7VHdTTMB2Myigox4O1CDWoObys6JnX9QMxyr0V6zGBFfoZGyDbHfjoqfUVulEfoP2TxflTio5Z2YFz1e0eDyq9rsnr5diCAq+rXCJllRFtQ0dT9SKqFpVdZN3s603fan5TZg/FIdE+cLwAfFpiERyA0JyLgKiFPIE3BQUsCaXyG+QEnAmHV6esAoJIfi26BHtCzpsXhjlawVbreqco229+UUEPOyGjHvZUdixIVG+MHyImnwb5PkOE242AkKiZQlYF1QqlEjb/vD+8OEi7vgjERA6+cEJGLlz9xTpRW5ZAEHfwlSrkmdv7SsDCcjXCqFapT3t6s00AiKnSQXyztqJGSaE0HxhcqkhvvfPKc9OyMjZCAjRnCNgW9IENFY2tk5uSmI8svps5I4/EgGhkx+cgNSdtgH4stsf+neBtuKUVHHoW5hqEzfsYtHK4JWvFVK1SrU8fb2ZRkDkNKlA3lW04X7Ih9B8YSBD8eNd7SNWwNfzERCYkiNgVVKnUM1bNwFfLprfpEjQydVF9tcPIOBQXUBvaV/cE4a+RakWFNI2VAZCy3ytEKtV4qLepN9CQNfN3dsObwCdHELyhYMMgZpvqaPnu8uJcgJWVC1MABWCDAGbIpxVMIF1E/BO4p38Awi4Y1p83LFRqRaU0tAJpmU9XytItQoJyRcNFv0SAu5BD3do9O2yITRfOMjYfHHN6ehx1EJPFxNQyhiQdz6RDAGrorfMSsB766cSEFaXIIPAcZUcR8jfNwAgKdH5WtEQQLY1nxJO1Ib9EgK+ICNeQFWQQ2i+cJBpsW+jvGigo+ckYPTqkY/RymykCfs/lIB30E8l4Avf2tsV9oOFVPuWRPpNIOrIYs/lawUlYAiXCjqoN7+DgAdc9g8hv+SQjuYLixLkSOPXqgYPlxpCb04C+qdXmoBsyYqHevMETAwPp0aOxTEwIWDs+WzQGAIWDtJdPZZHnTSNgKPdM/Y4FwTduZdIN7oRiM/PPqmHou96sExQqlbEBGSm8iKBegMIOML9eQKOyYLrtWfe5u4yIR3NFzaL6sjTdQO8jXJsVgKSfjZfflp6ubZ2MxbDdKimMZe9/Nd0bdPU/g8SqUIzqOwZbSVd200xYmYf7e27133RYZcSSuewN6sRDnsS5EYn9/t4tQIl4J6bHQUi2p/c5aGQr7rehW66rfMR8R91ckggQcDx7pSOX+NO3GOC1wpoJK7vk7bJuRAmk3JvayzDUJ8qRM3UCoaAruLyVQ3WG0tAqRQw+YJujy2QbGKuuL0MpTQqwfvgyPHakSfXznNODumF8oWt6A2kmp1UAjyLXD8vAW2iSQLWJCCVgEkEdDacES14B121MKnKGcxdGo2w72DIPhyHlVM4fCktIOAAzz7AOLs4FWoSJiA4E45svjzBFyQv6Dy+M0Q80KAMr1AHrvFnQCeHh4hMwNHulI5f5U7cRUIKkZCXhyR24SaYVHvRkkrkqxlTQfK1giNgcb0ZCBi7JtxS0mnMvfJZgIqbTRnVA+LXcaKpBc7JIdQTPAFbWLQrkEtx6GwERNRN5mSFX36gsuIukyFgi+M0IOlKXkpCpxhFg4lO+8zhIePjAFNlIcTsJYoJSKb1oqkB4ScqwULlJx6gBGwi940n4Hh3Ssevc2fiTerOB5FzyggY9VawKuctpg7lawVHQLY2gjB/siEg8mbwPp8vGQIKWYCKWxf3TjGZxqpfww0bkKHlJ4f0QvkiQsY71zq98p7FhHBZBYUb42UEtK0yDDA2wgZ1GKyp9eWqVaiPbV3Xw/G6xn+E5CsSZ0iskq9tJ43t9m6OESFdFCActsXlJQow5dIG2RBTPA6X/BwuvYuKC6y/u5DuUOZcISAEPBirLl2ZF3QWcXKCgL2P6ubS8a18haNOzhNwtDul41e6c/fEPFhAysY9wMsuaUJALpM2qW5wGHBkusH5WsESsI5T8oLHDYmwa7wL+HxBtxfdq5QFvrg5/xE/SsUv1qWPnT1HTo2EQFfIDWbrd9f9DUMhMFNIcx2LELAmwgm4vkDrLyoQsEEVCr6f7GBXPTUSUoFSgrq81fBeumKXmO99Fepslr+gPw7hrJfUYVvGQDV1hcI+K2EUX5SkagoIeIA829ELwmv7foo43Jkk4Ca8OoAjZB3vfYGAo90pHr/SndAOKh8lT0CSqrv15Ow8V+BRfXExM7WCJSB7MAT5bEi4Rs6XxEiIlAWGgP0/97IPd08PUqmmMn3s3Enyo4yGwHyRBxusqx1iAmoq5ORiAkbCCbT2vApcXxymwX+RLRvAbfIEbHyZ8nFQ7RamMGA3HnA2h5DwWkk4PBSRAwoII1g0CqinOQLiSR078FdEQNQ/5qp/joDefRVw2CgCjnandPxad0oPAXfJKwiYfBFYhfIed17ztYKFXcsdZGzhXGPvQs4XmYBiFnSg6e3PDGkUdoJtX6XkJK4JGIdAXwgZFHLEPeRD+wrn1nwE7EKPNEVA/FytNqjNX0RAEqcJkaoEAOnbVdLWCAEuW4XDUULhvD2mEypYeQLSN/oAGJSAexSdSzdDwAaFVCFSOQHHulM8fq07pYrj0t5h83xSBQRs+Fs3grCKu8H5WpEiINfwRPUGtdPc3+E5w+ZLgoBiFnR4OQZJr6gT7IdY5Mbi/uXFvruMZw6wITBfBAIGt/v3fy5HWpgNsxIwpJwiIM712i8/9Ylxv2HlbGkRCUSspIv22uHFtS8ol0Emu6a9cDhu+vvys6fFBSSRJyBt6oPHNyHgCz5pPAGB+6A3RxFwrDul49e6M7zrY3QlAduN/CIQzaqNwJWvFWMJiM6NpkCGYiHmi0xAOQvIaowOw1J6/AL5YRlp2pYx2Z1TGgLzRajvjfeu97l79jfYxzMSMHRCEwRso1yHKiFgTVMI1btKJo4VigatQnatvHA4bvr76rSnUcDDNE9AOgOAlENwkOMLUZqAZCHCJAISZd0pHb/WnUkC+sSnE1AqT6iORN3gfK0YSUBsSjT+LQ6IlxBQzoL4LQukXlRiqfZuWmJ6/Yof1I5OE0KgMxILz4wjQ+fXvQgcnl1wAokJQJpIwNb9TBCw2STG1xoYSSJgRVMIlTgKkoV7nwxExLe8Ub77M+NnYqideQJGNRn3u/mrTyMg2bJpBgJm3Skev9adt2wDJhZj4jd2Ec7ytWIkAXG9SbkGCZFRIqCcBQzkQIISdW0ivgGX6yjvfF+XLu6WQmChFRKtrK/DAIhjIfMmnBZxnA9uLLghYhJww8xTCNi2TYUiSQQ0V0NCBCxYwno4wHezQltebOKbsoYEqyxur7+UEzCeXIqfxFGKnYs1noDARzMQsMid4vGr3bkMAVEnOO4G52vFyJGQmICxa+g6mwMZgpAIKGcBLW4dmrQXGQFU2PwD1oqb+TAhBQR0LT0w28F6P5FVTjwBhSuhBIbfTYKANUPApnbr4koJGKmUgPudWzCEqiyTkWL+PnFKVNm9i5Un4EsUFMohSPFxCFjuTvH41e58ius+SvyKseAEAUmloNUoXytGzobB9WYf3TMmIJMv9PaIB/ksYAiIS6XgeDflOtv8g4Jj0JmQAgK21pNhIrT92RIXz0tAN0cqTUB8MfomEibM3jIrHyW1JQKZLR9GIBi/iyP9bHnxywr2USKTCYifxPbgAxFwlDvF41e7U5oQ1I2bEU1SDffOphxtmknQla8VI2dE43qTco2QL/T2njIEDC+nCcVggeU7wbb7W/61KnBXfHOehoB8EUc+LbWAy+3Cd+LieQnoXvuWEzAs8O2/lVUyEjKZgGEVUb+Zui/5SsBpBBznztsRMLEmBL9kJQFXEbDmS6HQJuRqxchVceUEFPKF3t5kAroryZ3gYQrNhA0TnqLbEkJKCGhf91GS2VEOet5sBMQrdpnTSS+49vCjd5YkYMIWkYB+zdmQNb5oTOkF81co6raRN/c/thc80p3JXjBzmI3B9oITQyFhjshEAorlngdgNM02UStG7oxQ3AuW8oXeHiEge5csAZ3vmCAQaRIB5eY8Cdnke8FuPgxw8kDDitBsZgLih6NgF9jjyqSMJxFwv2cgIFyT1etuBCSv7lME/EEjIWPdORsB44GlpzhlsM+mJ+acBBQ/8hGtFR3E1IrE7ljSorjcSMihS+QLvb3JBLSnJ1bECQO7VP3q5Lghu0uGWJUQEDx2wLJPcqSbn4DoccecjnOyJgmXEDCBuRQBaWfJF40oK4fN44TDqWdf0fQNQkC8fUnZbJjxBARzKGci4Fh3isevdGeH1w+6mH7mJpikSKy/hoDyLFp8QqJWjNwhtWQ2jLuzsTOi5Sxgg4ZuMN3CD6psIDi+Cbgciw+xKiEgyKR4ARy3gBHoGgKixyNzOp7ZSWtX6YxoPB/Qb/+ZIiDNy8QU3uFv4XCc9X67zaIpvGTxWyix5TOixxMQTIOeiYCj3Skdv9KdHV3+bw+8HNCaEkJA0KmaMiOa7M4Ghd78pWrFyF3ymRnR1DV+5Q2fL+kZ0XwWsAQcGqAJbHZlkwHjXo8r8XLIoIIZ0R33MWf2886zExA+H7nzUU7Sk+DfEgEbakyooikCUqeGv5llFk/y4fgB5ctC2TIufBJYzsTUY35V3GgC0t0jZiDgaHdKx691Z2fbejBp0wRBa2exuXTtP7iJolVxjl5wUiruweZrxdgvJcUEZF0j54tMQDkLeM4576ZXxOUbghTj4YAcYlSwKq4DT50qOgIfa8UEjL+WOby/ixIAjzvOrgryi1y6LiFgR0oJ2RkhRUDgVNBDYpbsv8iHo3GpsUv5n55o+wXs0UZ2Rohr6QgCBk/A18EzEnCUO8XjV7qz1wuLQJgwTgkiM0VAaWeERKXZCGdEtYJUqxAsNDVQvZFdI+eLTEA5C3gCmqx7kjvBTrlFwXTgA68Q5UOMCnZGMEGUd77tzm3lCGPyBIzFExA87jiz0C4/eIkW3t5eJGCNrteCO8r1gvGeKqiBgJm0Txwm753otllC7yz8RHv60T2winbHKiBgBR2G5oDO2Ase507p+JXu9EHozbvthPla9BKldMXuWPzatQpWrnytEKuVUICzu2Nx71LwHjIiAcUs4Ano5jvzhkKFjWHYba8weenGaGyIUcHuWL2qyKOcj29AwPCWhDMLbXENN+h03QD42hKZjm2GKzILBkkQeFzG2GzZgzzah8IkHMZNDhiwR7mNn9OhxAz1D8AUTeuwAfgr0eMJWFMXFRKQef7IIyHj3Ckev86d8NQdMYg8T3b45HB1dxat1pW8Vd8mCkJuztcKqVqlduPyYbJrEvmCbw/9IWWB8LYPOTCjVGcYFfLB2GxIL5gvCQI2yOE2IuQFPDYnAcMLR9auDWj20f3uTdOFmRtoKmflFiM7+/xiOgjN5GwYsBG4aRXsQbG5hO3sOmyb58Jh91GFF7/0CFT9FxziS8lQCMyXttyUeRI7VM0dt/E5+FlAQOJY8Oo4Q0Dn5KLZMOPcKR2/0p0wjf6o7wHHWebNPTyJBISpbviXcvy8ZdQNztcKvlpVUvGNd8nfY9cInxyA+YJuD/0hZYFAQHEJLysHYibEZZkrEVEVi0OoKxIEjNvq3BSkWxDQNzZZu9ALDZR41cJvmCACYngnvpQkz4h2bffBte4TPEOY8Akf6Ys/hyc2wJRLdBk84vEExuu4ZLGJoOcwnoB4BloD3qMnCAidnJ0RPcGdE76UVOLOIQ2ctgmEiaHgfffEEpCkKrwGlDZwgd3gfK1gq1VqYyNYb3qv0FsCQUK+oNvD9ypkgUBA1Ews0AG9jqQJcddNhJB8SRAQfxWzl9+nB+gmBIybnyQwPnUDtjNkCEhKnfy1zMSqOODUvvSDooHC4CsL4XDi847oG4ZkGytfbNjY5iwAR9DJmEBA6Ni2KyMgdHKWgFPcKR2/0p2x7wabUFcKpDNMdWIISFKt+WEJad5yQ9yXrhW0WlX409exYL0xBAS3JJRZki/o9si9yl/L5Np6pHwW6NIZ5g6jTEMDJnIIzpcUAR9V5Fk3bIpl+779yuCKK3ZmyXAVSh37xfSc7Le3h05B72Kwna77LveejUIPs9+XdmuV3GVwBNMf8fVRSLZznZfp36F2ch4q3DDRRCFOzmiCO6XjV7rTxXCvD3bhNWsYLthx6RAzUKqbdKPs3orNObCukfMF3R71oPT5dU5PPBiTEs4/2H5uXOLFEOSIn0hA4dH68xWv1lRdoRncuR9fUYNwZ2V5PU69yU8GvKVwvjxUFhWqfbCSNZuUgLNqDncermhK1+WfXLiLHqfelEwGvJ1wvjyIS8apeqzexWxSAs6qpd2ZfKm8hB6l3sg7A95FOF9+JAGbh2nOz6ulq+wv08LubB6sCfg49abwM8E3EsmXH0nA/mH2WE/XeaQEnFULu/MBC+ljmJT8NtXtRZzwMwnYPsjDbGYpAWfVsu58vCbgI9SbvZ3Hv+g4CMqXn0nA/jYe4o3GvFICzqpl3bk4bDgtXm/cZMPlmoA0X34oAS9N2QcsX9dKCTirFnVn8xAdzkhL1xtLwEWb5jhffioB26UfZreQEnBWLerO6vH6wL2Wrjf7eIXGfRXly08l4O/U4ZrpZyoqdecD6tHyRAmoUqnWKyWgSqVar5SAKpVqvVICqlSq9UoJqFKp1isloEqlWq+UgCqVar1SAqpUqvVKCahSqdYrJaBKpVqvlIAqlWq9YgmIvsqHPhwLJC6wvucOPKevi87x8e/+OHfy6R5WUR15IxfWzFaNT27pfUpUqpsQ8K4bo/Wk+y48rAREWpyAi29Wp1LdgID1XTdGYxt7QtNQCYi0OAH7/crnu75KNUWzE/DOG3Eb1kVYk7moBPRanoCPuJG8amWanYD3/hgL29/l+8ZKQKTlCfggX+5RrVnFBKyoeALe/YN8XHPvzI+PKAGRHoCAj/L5RtV6VUzAwnfWd/8o85npBvdUPManKgGRHoCAj/dRcdXaNDMB283dX24fY9wJA8RKQKRHIGCtbwJVy2pmAnIl+izVCzEgGUZD4m6w0AmGBJxkkywhljuchsN5wjWn2E+DOKvK3R4FMMnljVngialSQc1LwDbq1Zz6inFppNG2lzv+DSvJ6aLLf+fvIw2TQ5husNAJdgTkEsna5K92+fOctckcDjcuE9BG5u41vuLZXvAk2M9a4qw8Rq9LqVWiX5yRcVDiJguNuftbE5UKaV4C1uSRfvryQgwEx79AFTkacoHAUz6E6QazE2Q6R0CQyDcNZWwiLcxTiJay6XwMN36WCfgNr5m94skkI9l/BokdeZ/ii2OrhOj2PPaSiZssNoaWGJXqvpqXgBXuBMMKDgGBj4d6YyrIiYsjh8TTn6VO8EBAdG0ATskmQg5KQN6mM75xiYCILd4Y8YqGgCcuSnRJ8uywkeKrn3PRIebIJRM3WW5M3GtQqe6peQmIzxug8n062V7UCR0/9gFDZXAVp68gZxPl0uE7wiA5pIvafFIn2FQ92zVzJh1hJNYmkUcpm76+0GUEAlr/XM6yvzJXNATH9vsm2TnYj53trCSpdpiAYnRL6W8mRL7JMcaUTzNQqW6g8vmANRL73G7QA90UddsFOgHcnCEsviGHLJVg0CkX0kXdYALEINv4gCb5kRHRpiQBBZu+o8twBDwDhA0trcwVE/YPxpzgfYaAY//vFBkACShGP0HOnqFjEjc5xphKpwSqltTUNSHscxu/1EFgAuMVRwSEb1pzUKcY04YL6Wg3WOwE28qITfoC6bM25QjI2HRmLsNY9B2ddU5fkbP/KLoAWcnMDYIElKPjBvU52Ja4yVHG6ItA1aKalYDoeX7CNfnbFX06dgtAecRBp5KQXihQ7ARHwwFhTXHCpgwBOZu+mcswBDx+0YbsKX1FmhAgDU4L+v4oARASMB0dhISAxE2OMgb3G1SqO2tWAm7gQAhupxnIGEBQQp1xBTkyUVIhUZKk/gFFuygcC2xKE5C1ibtMloBh0kuagN8kBf9UQdQPaR9JcvicMzE9iv59PB5JQJe5yXHGtPoiULWk5iRgiwhIq/3R1qWIULiCcNBMhbg/0Vt4/l5PNMgfSNiUJiBnU2SBsI2r1FhNE/BMgr5cUtHUnm/OSnKPZ2+JEJ2JY34kbnKcMbjQqFR31pwEbODxqCXgFOHgG1UQOKkOE5AP8WmyL66QTlGQsyVhU5qAnE0RARIbNZCpd+kryvZHBA8OkpvEgYCJ6IzJ5lfiJkcas9GhENWCKiZg3SBxr24QAePqOihuo+EmApnYBwjIhxh9f0ms5C/kZE9O2ZQmIGfTd2QBT0A3nYSO0iYJGNvvCY6EoMOvRwkhiejg/uxalEBA4SZHGqMEVC2pOecD1pSAXEcqrlwnqYKUEzA0QBKdYGZnBEBAyabxBIwZLFAoTG5Ga8dGEvDUOZYSjSOgEH248LdbF+dtS9zkSGOUgKolNTcBfdsw6iZZxbQRmwjlBAwvmKTL9ooJ+C0REA9rkDTmIiBab3EsWxXH2s9DJ6BqEgGdDXRRyDQCysZUG50Oo1pOv4SA8pgGOemhCAg2HfgKrwQfi4BhteDx+xS2NFACqn6Hfkcv2HeDU53ge/WC41dkMoU6v9XLF+IRe8V0L1hIvpSAQnS/WjCMmfjjCQKOMEZ7waolNScBo5EQiYCzj4T4bnCqEyyPJMw/EoIv88VUfCS3lVT6iumRECHp6wgIVza6OOZH4iaVgKofpJsRMG6m2Sm/EQ7wbJiJBLTd4GRri59N4v4vmw0Dar5kU3QZeZ0eSZglSLhiejaMcIESAsrn0LlFnoCJmxxpjBJQtaTmJGBmRjSorYkZ0RMJOKxRSHaC+RnFuVnaJEUwp1eyqXBGtJknwl1SvGJ6RjSegudXmJQQUI5OY5fOiC43RmdEqxbVrLtjbTKr4nxtTayKm0pA01QS1zIYyavKilfF0WX+rE1fBAFhwRi1hs5pZAgIrijbH7XIStp3IUSOTjmH/cLf5DhjdFWcalHNSsDczgihiUR2IcgxpYCAwwoLuQPmTmF3FkjYhKN8lxDwm7kM0wYkR1EbkL1iYmcEYj/ZjCBHQDk6sRFsh5C4yVHG6M4IqkU1KwHxTkdfEFPFu2NNJaCbhCGsiOuV2F0qbRPZBCpHwMLdsXCLLuBMvGLCfswjCHRs5fEYdjoAIWJ0/HoAbq6TuMlSY4x0dyzVopqVgHjLc7ju9QTqy1BbhjoxTLd1HLiKgHbimtwJZncYPedsgq2+E7qEbFPZDqlDymeQNGhCcldM2N8daSSGc519TDAhUnS476v79gekZmKH1LwxRpW+BlQtqdvvkn/8/j4eUW111fqbblV/FQHFtpaXmQ/oTPoCzEvZdLY3YXd8P5cQsDt+ocucWLuswcdgzTl9RfOCDdv/TRMjaZUSUIpObDGXP4JhDf4mC40x0teAqkU1+5eS4MwG6UtJJ3Q8TDe7ioAdmFLHq78stom+rWJsohG+SgjYHWGkM09AcslwinRFQ3AUiY40MXdWRkAxOrrc0X2nKXeTZcb00teAqmU1LwGbjfy1TFjy4VpTUIuvIyD5ekgsQ0C4HwGqjIJN6CbOXSEB4WKy4QOXXNsULbkF1ghXHNa0gEA850T8QGUJAcWvZYLLfbsEXAryTRYZ06vW2YCqRTXzW+gIle7r3pRMrlcVf8Dn5nJfHI9gKdnkVmyk6BpfpSiS/2Yd/hY5H9mt6pPsFz95Ps5iGv0EvdJDO+wanbjJQmO0E6xaVjMTUB/pN1S8rvnHi3YaVKo7a+by12qJvp1+IQFrHQlWLau5eVVpr+Zm+oUE1HEQ1cKam4CNdoNvpt9HwEabgKqFNXuftdKn+q30+wiohUW1tGYnYKuNwFvp1xFQm4CqxTX/uEWjbwJvpF9HQH1YqhbXDUZuKy3Xt9FvI2CjfWDV4roBAVttBN5Gv42AlfaBVYtLZ+/9IOFNpVUq1dVSAqpUqvVKCahSqdYrJaBKpVqvlIAqlWq9UgKqVKr1SgmoUqnWKyWgSqVar5SAKpVqvVICqlSq9UoJqFKp1isl4ES1uqhfpfr5ignYbGT14dXws2XiVOkE7H4JFTzZqkUf6JxyHyFy5a27KsWU2upmSXNXe35+fhtx/sfl/GcG0H/743K07SX0kw35k4zn4v4bYeLYrLnGtlRs1eq1HAFRCj+LgM2Vxo7UWAJ2z3wE4bCTElC1Qi1IQNgInETAtg1d0RwB4bnX6mpcj73eWALyjT2paeikBFStUAsSEO4iOAkqkKI5Am5m3I+4Nsbf70XgaAIa1n3Qo2+Xg38SsZSAqhVqSQKCa19NwOoi99NbBw7OScBwgftoNAFNf/cvdzCVjMyJ7UXpC44mIMiaEl1jmxJQlVDMnLbyslgKB/rwYgJWVDZKIGDYIvhqAgKxgJqbgHOlVaLxBHxjusFtphN8FSdGE3BC+tMZpgRUiUpWZRZLpQQUgRMIGBJRAiY0noAt0w3uqfiaiqQEVK1QyxLQn6METGg8AbvXSxTSOcx1gpWAqjVqWQL6wZAHJmA84lFAwE+Eg89x1a8lLMkSME7/v6gbHHWCo0iAE1mD/xGnMAQcedNdcrB+jG2fEYrHxFatTAsT0E9WEQnYXAT+bC9/tsP/w5CsDQanBQLag/hckuBwQKh8zWBrVbfwbHhdpI/39/f+eluAn/atb489v/51SbTvw1k4muuyvvdxL6e/AYswAT/fwelM+sNJ/TF0lTfYKmQjWU60b3+oBcTKQDPnAAAKLUlEQVRia+P2HccF4OGNgsL+a+vY0UilttkTtr1/PnyIHFu1ei1NQDsYIhOQHG1sHDDg7MdnQPptBw7ic6sN/ppnK7Y94aC2q5otOBZF2BrIvD+HBtg/MzVv0HZIIh6RCC/tPv6E0/96oiACfvZseXVhTPreFNwN/hOQKEQaOPEewt5hiD8NnPD6Ac/w9opGAaF2dB0XCKJC297CdU3Iay62avVajoANTOeOBGyIbbVU7WC9jAyVCWgr2nA2IJrHXF8f/wOxPvzpb+jsP77VCAiIAcimb2SsgK2y52fXE5QiGU4gE95BiDsL2wjPyBsFBAmIHol8uSmzbQvCXykB2diq1WsyARuoegIB2xqcNpqAbV2b+Jf/apcoSB8RkJxLUoxwbmXNq/3dmZPodZF6ArbPgYCfQ118e38feoUDDXo4bXGsAXDm5d3ztj99SMMyBRDQAHDrWMOnP4jU89AJFiP1dvStt78f7cfQX3QGAMoMlv29RN7CyICAKaOCQH4N7q3rpra/mNOLbNt624yXMAH52KrVazIBOWEC1kQkgbaDYBlLQBsUZkQnCEjOxd3gVoB1G4yzlZS7FlZf53oKvn/6vz2GQt/4X/8DMNf9adjpGn6GNJaTgYAYgEL6IQxwNnSCxUj27R40ALxHC6Y4A0yXHTAGIEkyKij4sAXUE3ecKLHNtKX/gt/IOj62avW6HQEjkQRae6KJdE8C4m6w1AmuAAAtAlsQxMRwNc2/sntHqGt9GO4G+yZhf/iPH6r8L0T2BCQAlNI3Mgz4RIH/0pG2gBkdaJpCyqBZNmDWYSBg0qig4MMaZkeLvB5UYhsAoL0wIiAbW7V6LUlA+8sM196RgDhJocq1zjKQKGxExjE6W9NC3XrFbQ3/vg93g7f2LDqLOTTiHAEJAMX0B6GWTugEy5G22ABgpacMucSbv91AwLRRXsGHuElOx6mAMzK29cfAsuc3SkA2tmr1WpSArQ+4KwFhLaPjIk41OQ5HjNMEDFFoRdu6egibZ/9cnDdyeusTswT8JNOc5fS7KD3PpUSkrZi8pwxpPYVTPAEzRnlJBGz5qUmFtsG+LSFgynGqFWtRAtqf9Z0JCKkntDni4+BAkoBhQ4K3Z9LZeofd4Hdw8C89aPTq2DEQkAIwkX7nYrnuaKBpIhLB2ydDGYhuE+C2JfAEzBjlJfSCJRXaRqO85mKrVq/JBMSjHBMJ2LqfdyUg2TWLdcFmQzrH4H1hkoDv6C/U+vFtjw9QBbeOU8/PZITSw8QQ0AAwGkPm0x/0J9T70B5MRCJBDGXaZ2lpsSdgziin4ENTXCqm3UfTz9uGrvMfJiAfW7V6zTMfsGUIWDVEXAJuRsx9CVj79hxMLrohdAScmSRg8Itpg/0DCpU0tKU+XT39jF6Y+dahiTfMLIGtxET6RmArBN+cTEXC1nOU+RDR4QmYM8oJZ40pLrl9a9K2RW3Nd0xAPrZq9bohAaVUUQLD7+a+BAzdYKkTHM+RAV3nEQSMNNS8v55lfUvFjAvHpPC8aWEC/0rS73y01v/KRiL7B5RQBt25J2DKKCfgw9BnEBfFFdj29kxeIoAGqxxbtXotTUC3MuSuBPSJiiviYgKCI0kChprGwmAYrQyNKXkIIRyxBHwzzcS/JekHcwyw3kK8RKQ8Zf6bSEBmZ2rowxbuFpRaFZeyTQmomqSlCegGQ+5LQNcNljrBtyMgaIr1ZwbuZQn4huYIZtI38vNDwHuwRKQyykwhIDMdBvvQ7Yxgyg3XDpxAQP9+QQmoSmhxAsKFtncjoEuF3UjLWTWtF4wJyJ7Whfr65tmU6wUb8rw+g6GIVPpGbvEJ6ASnIs3WC04aZRX5sG08BIXZMHkCwtXW2gZUFWlxAuINCHgbwJ/zENCmKq2Iu2YkpIyAjnev/pzcSIiP5hmUh802NB0LIuUp8/HMfH7En3EdAXvZpiCTJRPo/KEEVBVoeQKiRiBvA/gTLmK7goBDNziMCbOXnTQb5hP9JY5v/jHIaAmb0PadeDZMOOYSTaZv9D7wCJ6YiJSnTDQbpt/r0E+C8T9Ktt+TfFhHji+0LRqn/k8JqCrQ8gRE8wd5G0jkGQg4tOjETvAVM6JDTYvfzV940aLAN8Km1IzoQc+h9ibTD2d/9BXej0UkIuUpE1H61f2NZkRnjDLyPmzJl5z50fm8bX5tDYyiBFTl9AAEhKtMeBvIhWYgoElWWhHXa/KquFDTQDds0Cvg3dCzhVUxuyrOyDTr3vPpD+pn3byh/mEiUgEB8Z4OwERPwAKjjLwPue0apxCQLkg2RFQCqnK6HQHjr2VWLZ8AaATyNoRT67kIaAjHVjZwR2RnhBr8ZiORmvYH10m8dN80+eAJ5kUg2RlheOmG9ogGa4+T6RuZfQlwx1SOVEAZZmcEMqmnwCij0AYkhWlqG9B1+aFtSkBVVjckYCyBgKARGNsAN2Wx15mDgI14QWjThN2xQE3Dk1faZ8SGYTtUuqNfOB288UMENMn8zac/yF4EtMrkSAWUgZ1wYXesAqN6BR/CHLX5MuU9ILHtA963ElAl6iEIGAZDYhtgq8+mDAiIFhuDnxwBceI4qViDTUNrZJiyi7Z4ZeOQmjYwzbLrnZBo2EoZDq0ORwZcfMKo+EtJAI2p9MHJeJBUjFRCmaFR2YbI4Ay4Q2rSqF54ZwT/GZYmFCOkEtsGe4az7PNlm4utWr0egoBhRkxsw5C02azeoI0QsLILjksIWMHvk9XxXWA53NbuO2bIA2wUSkC7mGP79rYd9mZvycn4iP3CyN83uwP9K0gGMCxMCkymD89o40NxpBLKWKT2kV9hZEDAvFG9gg9d2amco6fNB+ycRy8XNl9q+nhWAqryegwCuitx1qD5gk23we/j3FVzBITnBiuTuzLh+wBLFYoJiFf0kk1TmPbROzrb74VKCAgmBabSHxTtKCNHKqIM+VIS/MYINDdtVCesCxYBWGjbFl6WnKMEVLF6EAKmXss1KAFAQHjVHAGRhf7m5E6wiQMGqeGZ5QTsPuGHI3HQvwCycEVQh/FOf/BE0A9OpA/OJS/ihEhllIGYDp/ChATMG9XJ64KFfbIKbQt4bukuqkpAFaskAR9EbqlANERoqo6wlj57rtTcgGrclUsm+QrXHbq028LPdH8MH1jbvpd+zGxk+ldE8no33dvXN751NyX9JvfF9FL9+29rvNcNryz1ayCqnH4CAW+i1GRA1S8QmmqkUglaLQFTkwFVP1CfeG0J2HRCpZK1VgKKOwOqfqi2hHivz2V7NKjWrbVSQPpMsOqn6j88vqGfxFQVaaUElL7MrfqxwmPr+MPtKpWkFRKwqcRt6FQ/WGYqzJ/39vNf+7591pFgVZHWSMDEzFvVDxacEK19YFWZ1ktAHQj+dULrVbQFqCrRWgl47dRb1SPq37ttB251JqCqTCskYL8v8dIWqG6mf5/CQjyVitEqCahSqVRGSkCVSrVeKQFVKtV69T+ae94Cb5ErLwAAAABJRU5ErkJggg==;" vertex="1" parent="1">
          <mxGeometry x="50" y="140" width="1111" height="152.65" as="geometry" />
        </mxCell>
        <mxCell id="Ni-IUSlxYS87KvHIqO-1-3" value="" style="endArrow=open;startArrow=circle;endFill=0;startFill=1;endSize=8;html=1;strokeWidth=4;fontSize=18;" edge="1" parent="1">
          <mxGeometry width="160" relative="1" as="geometry">
            <mxPoint x="509.9999999999999" y="514.3400000000001" as="sourcePoint" />
            <mxPoint x="629.9999999999999" y="514.1700000000001" as="targetPoint" />
          </mxGeometry>
        </mxCell>
        <mxCell id="Ni-IUSlxYS87KvHIqO-1-4" value="" style="endArrow=open;startArrow=circle;endFill=0;startFill=1;endSize=8;html=1;strokeWidth=4;fontSize=18;dashed=1;" edge="1" parent="1">
          <mxGeometry width="160" relative="1" as="geometry">
            <mxPoint x="635.9999999999999" y="514.3400000000001" as="sourcePoint" />
            <mxPoint x="755.9999999999999" y="514.1700000000001" as="targetPoint" />
          </mxGeometry>
        </mxCell>
        <mxCell id="Ni-IUSlxYS87KvHIqO-1-5" value="&lt;font style=&quot;font-size: 16px&quot; color=&quot;#006600&quot;&gt;electVehicle&lt;/font&gt;" style="text;html=1;align=center;verticalAlign=middle;resizable=0;points=[];autosize=1;strokeColor=none;" vertex="1" parent="1">
          <mxGeometry x="531.0000000000001" y="485" width="100" height="20" as="geometry" />
        </mxCell>
        <mxCell id="Ni-IUSlxYS87KvHIqO-1-6" value="7" style="ellipse;fillColor=#ffffff;strokeColor=#000000;fontSize=18;" vertex="1" parent="1">
          <mxGeometry x="1025.37" y="340" width="30" height="30" as="geometry" />
        </mxCell>
        <mxCell id="Ni-IUSlxYS87KvHIqO-1-7" value="8" style="ellipse;fillColor=#ffffff;strokeColor=#000000;fontSize=18;" vertex="1" parent="1">
          <mxGeometry x="1145.3700000000001" y="340" width="30" height="30" as="geometry" />
        </mxCell>
        <mxCell id="Ni-IUSlxYS87KvHIqO-1-8" value="&lt;font color=&quot;#FF0000&quot;&gt;isLeader : true&lt;/font&gt;" style="text;html=1;align=center;verticalAlign=middle;resizable=0;points=[];autosize=1;strokeColor=none;" vertex="1" parent="1">
          <mxGeometry x="605" y="540" width="90" height="20" as="geometry" />
        </mxCell>
        <mxCell id="Ni-IUSlxYS87KvHIqO-1-9" value="&lt;font color=&quot;#FF0000&quot;&gt;isLeader : false&lt;/font&gt;" style="text;html=1;align=center;verticalAlign=middle;resizable=0;points=[];autosize=1;strokeColor=none;" vertex="1" parent="1">
          <mxGeometry x="860" y="540" width="100" height="20" as="geometry" />
        </mxCell>
      </root>
    </mxGraphModel>
  </diagram>
</mxfile>
